<?xml version="1.0" encoding="UTF-8" standalone="no"?>
<svg
   viewBox="0 0 16 16"
   width="64px"
   height="64px"
   version="1.1"
   id="svg1"
   sodipodi:docname="ao3.svg"
   inkscape:version="1.4 (e7c3feb100, 2024-10-09)"
   xmlns:inkscape="http://www.inkscape.org/namespaces/inkscape"
   xmlns:sodipodi="http://sodipodi.sourceforge.net/DTD/sodipodi-0.dtd"
   xmlns:xlink="http://www.w3.org/1999/xlink"
   xmlns="http://www.w3.org/2000/svg"
   xmlns:svg="http://www.w3.org/2000/svg">
  <defs
     id="defs1">
    <linearGradient
       id="linearGradient1"
       inkscape:collect="always">
      <stop
         style="stop-color:#8ab3ff;stop-opacity:1;"
         offset="0"
         id="stop1" />
      <stop
         style="stop-color:#e594ff;stop-opacity:1;"
         offset="1"
         id="stop2" />
    </linearGradient>
    <linearGradient
       inkscape:collect="always"
       xlink:href="#linearGradient1"
       id="linearGradient2"
       x1="8.0000715"
       y1="0.66943705"
       x2="8.0000715"
       y2="15.912197"
       gradientUnits="userSpaceOnUse" />
  </defs>
  <sodipodi:namedview
     id="namedview1"
     pagecolor="#ffffff"
     bordercolor="#000000"
     borderopacity="0.25"
     inkscape:showpageshadow="2"
     inkscape:pageopacity="0.0"
     inkscape:pagecheckerboard="0"
     inkscape:deskcolor="#d1d1d1"
     inkscape:zoom="12.4375"
     inkscape:cx="32"
     inkscape:cy="32"
     inkscape:window-width="1920"
     inkscape:window-height="1005"
     inkscape:window-x="0"
     inkscape:window-y="0"
     inkscape:window-maximized="1"
     inkscape:current-layer="svg1" />
  <path
     d="M 0.77929688 2.6269531 C 0.63534375 2.6170156 0.493125 2.6904219 0.421875 2.8261719 C 0.325875 3.0091719 0.395125 3.2360312 0.578125 3.3320312 C 2.420125 4.2960313 4.10375 5.5422344 5.59375 6.9902344 C 6.2294907 7.6055497 6.8247478 8.2615129 7.3984375 8.9375 C 5.7785006 9.5203092 4.2715444 10.339462 2.8535156 11.269531 C 3.0615156 10.823531 3.2472969 10.369297 3.4042969 9.9042969 C 3.7722969 8.8142969 4.0100469 7.6810625 4.1230469 6.5390625 C 4.1410469 6.3380625 3.9949687 6.1538594 3.7929688 6.1308594 C 3.5869688 6.1068594 3.4009531 6.2549375 3.3769531 6.4609375 C 3.2399531 7.5419375 2.9853281 8.6040469 2.6113281 9.6230469 C 2.4273281 10.134047 2.1999375 10.628281 1.9609375 11.113281 C 1.7209375 11.590281 1.4404844 12.075562 1.1464844 12.476562 L 1.140625 12.484375 C 1.029625 12.635375 1.0227188 12.845812 1.1367188 13.007812 C 1.2797188 13.209812 1.5587656 13.256281 1.7597656 13.113281 C 3.7264508 11.718096 5.7996605 10.450579 8.046875 9.7265625 C 8.581492 10.397705 9.0987924 11.083889 9.5917969 11.789062 L 9.59375 11.789062 L 9.5976562 11.794922 C 9.6606563 11.882922 9.7522344 11.952375 9.8652344 11.984375 C 10.129234 12.060375 10.403516 11.906578 10.478516 11.642578 C 10.729395 10.765776 11.090314 9.9177639 11.529297 9.1113281 C 11.859823 9.1127323 12.184897 9.1327829 12.498047 9.1894531 C 13.077047 9.2874531 13.613094 9.6051563 13.621094 9.9101562 C 13.715094 10.175156 13.222531 10.546406 12.644531 10.691406 C 12.466531 10.738406 12.321828 10.889031 12.298828 11.082031 C 12.267828 11.335031 12.448172 11.566656 12.701172 11.597656 C 13.211172 11.663656 13.717813 11.809219 14.007812 12.074219 C 14.161812 12.224219 14.208266 12.326453 14.197266 12.439453 C 14.187266 12.562453 14.094453 12.72375 13.939453 12.84375 C 13.633453 13.08775 13.143797 13.180547 12.716797 13.060547 C 12.280797 12.948547 11.831672 12.624344 11.513672 12.277344 L 11.490234 12.251953 C 11.355234 12.103953 11.125656 12.088703 10.972656 12.220703 C 10.815656 12.354703 10.795687 12.590047 10.929688 12.748047 C 11.351688 13.243047 11.837328 13.634656 12.486328 13.847656 C 13.133328 14.045656 13.886469 13.987062 14.480469 13.539062 C 14.769469 13.317063 15.028937 12.984969 15.085938 12.542969 C 15.151937 12.081969 14.885906 11.639063 14.628906 11.414062 C 14.439906 11.244063 14.237203 11.126344 14.033203 11.027344 C 14.349203 10.775344 14.643312 10.297734 14.570312 9.8027344 C 14.517312 9.2737344 14.145875 8.8662969 13.796875 8.6542969 C 13.437875 8.4262969 13.064266 8.3075156 12.697266 8.2285156 C 12.495673 8.1890942 12.299851 8.1831271 12.101562 8.1640625 C 12.982586 6.8403602 14.108102 5.6801972 15.447266 4.8183594 C 15.617266 4.7093594 15.673359 4.4825938 15.568359 4.3085938 C 15.461359 4.1315938 15.229734 4.0746406 15.052734 4.1816406 C 13.426991 5.1662554 12.075184 6.5437314 11.050781 8.1386719 C 10.170279 8.186708 9.3161421 8.3638172 8.4863281 8.5742188 C 8.4404135 8.5869491 8.3972873 8.605985 8.3515625 8.6191406 C 7.6733974 7.8297597 6.9622902 7.0677134 6.1972656 6.3554688 C 4.6252656 4.8864687 2.848875 3.6260156 0.921875 2.6660156 C 0.876375 2.6432656 0.82728125 2.6302656 0.77929688 2.6269531 z M 9.5 3 C 8.7083336 3 8.0519227 3.3148777 7.6269531 3.7929688 C 7.2019836 4.2710596 7 4.8888889 7 5.5 C 7 6.1111111 7.2019836 6.7289403 7.6269531 7.2070312 C 8.0519227 7.6851223 8.7083336 8 9.5 8 C 10.291666 8 10.948077 7.6851222 11.373047 7.2070312 C 11.798016 6.7289403 12 6.1111111 12 5.5 C 12 4.8888889 11.798016 4.2710596 11.373047 3.7929688 C 10.948077 3.3148777 10.291666 3 9.5 3 z M 9.5 4 C 10.041666 4 10.385256 4.1851222 10.626953 4.4570312 C 10.86865 4.7289403 11 5.1111111 11 5.5 C 11 5.8888889 10.86865 6.2710597 10.626953 6.5429688 C 10.385256 6.8148777 10.041666 7 9.5 7 C 8.9583337 7 8.6147437 6.8148778 8.3730469 6.5429688 C 8.1313501 6.2710597 8 5.8888889 8 5.5 C 8 5.1111111 8.1313501 4.7289403 8.3730469 4.4570312 C 8.6147437 4.1851223 8.9583337 4 9.5 4 z M 10.443359 9.1855469 C 10.224975 9.6036744 10.019849 10.028031 9.8457031 10.466797 C 9.5846232 10.123097 9.3167624 9.7835541 9.0449219 9.4472656 C 9.5075099 9.3376717 9.9756469 9.2458136 10.443359 9.1855469 z"
     id="path1"
     style="fill:url(#linearGradient2);fill-opacity:1" />
</svg>
