<svg xmlns="http://www.w3.org/2000/svg"  viewBox="0 0 64 64" width="64px" height="64px" baseProfile="basic"><linearGradient id="RrJ2-8SEOJe1ri1rrok4na" x1="32" x2="32" y1="8.002" y2="56" gradientUnits="userSpaceOnUse"><stop offset="0" stop-color="#1a6dff"/><stop offset="1" stop-color="#c822ff"/></linearGradient><path fill="url(#RrJ2-8SEOJe1ri1rrok4na)" d="M22.352,56c-2.651,0-5.498-1.543-8.482-4.606c-2.8-2.873-3.859-5.937-2.982-8.628	c0.696-2.139,2.542-3.893,5.351-5.146c-4.526-0.704-8.461-2.656-9.871-7.702c-0.58-2.069-1.488-14.091-1.488-15.588	c0-2.978,0.908-4.942,2.698-5.836C10.451,7.059,14.743,9,17.803,11.296l0,0C23.274,15.404,29.111,23.283,32,28.45	c2.892-5.169,8.729-13.049,14.197-17.154C49.257,9,53.551,7.058,56.424,8.494c1.791,0.895,2.698,2.858,2.698,5.836	c0,1.497-0.908,13.519-1.488,15.589c-1.372,4.901-5.085,7.262-9.15,8.043c2.41,1.22,4.005,2.849,4.64,4.798	c0.876,2.689-0.187,5.755-2.992,8.634c-3.546,3.639-6.9,5.134-9.957,4.443c-4.413-0.996-6.945-6.328-8.174-9.562	c-1.23,3.239-3.763,8.567-8.174,9.562C23.342,55.946,22.85,56,22.352,56z M22.031,35.984l0.171,1.986	c-5.147,0.876-8.578,2.85-9.414,5.415c-0.813,2.499,0.917,4.976,2.513,6.613c3.028,3.106,5.748,4.417,8.085,3.887	c4.258-0.96,6.572-7.742,7.332-9.97c0.24-0.709,0.354-0.99,0.354-0.99l1.855,0.001c0,0,0.114,0.282,0.353,0.983	c0.762,2.233,3.076,9.015,7.334,9.975c2.338,0.531,5.057-0.781,8.085-3.887c1.6-1.642,3.336-4.123,2.522-6.619	c-0.831-2.552-4.248-4.516-9.376-5.391c-0.005-0.001-0.009-0.002-0.014-0.002l0.336-1.972c0.003,0,0.005,0.001,0.008,0.001	c5.393,0.916,11.772-0.349,13.532-6.636c0.497-1.776,1.414-13.516,1.414-15.049c0-2.158-0.535-3.52-1.592-4.047	c-1.92-0.959-5.561,0.682-8.132,2.613C41.534,17.298,35.211,26.261,32.9,31.039l-1.801,0c-2.308-4.775-8.629-13.736-14.498-18.143	l0,0c-2.57-1.93-6.209-3.572-8.132-2.613c-1.056,0.528-1.592,1.89-1.592,4.047c0,1.533,0.917,13.273,1.414,15.049	c1.615,5.776,7.453,6.605,13.561,6.605C21.912,35.984,21.972,35.984,22.031,35.984z"/><linearGradient id="RrJ2-8SEOJe1ri1rrok4nb" x1="32" x2="32" y1="12.001" y2="52" gradientUnits="userSpaceOnUse"><stop offset="0" stop-color="#8ab4ff"/><stop offset="1" stop-color="#e492ff"/></linearGradient><path fill="url(#RrJ2-8SEOJe1ri1rrok4nb)" d="M41.649,52c-0.203,0-0.402-0.022-0.593-0.065c-1.447-0.326-3.641-2.095-5.884-8.67	c-0.264-0.777-0.392-1.089-0.392-1.089l-0.509-1.24l-1.343-0.009l-3.197-0.002l-0.513,1.248c0,0-0.129,0.312-0.396,1.101	c-2.239,6.567-4.433,8.335-5.878,8.661C22.751,51.979,22.558,52,22.352,52c-1.509,0-3.452-1.175-5.619-3.397	c-0.99-1.017-2.573-2.966-2.043-4.598c0.455-1.396,2.756-3.196,7.849-4.062l1.814-0.309l-0.486-5.652l-1.964,0.003	c-7.373,0-10.649-1.442-11.685-5.144c-0.42-1.502-1.34-12.95-1.34-14.51c0-1.673,0.384-2.207,0.486-2.258	c0.031-0.016,0.164-0.071,0.462-0.071c1.327,0,3.619,1.025,5.574,2.494c5.541,4.16,11.735,12.937,13.898,17.414l0.546,1.129	l4.31,0.001l0.547-1.13c2.166-4.479,8.362-13.258,13.898-17.414c1.955-1.469,4.247-2.494,5.574-2.494	c0.297,0,0.43,0.054,0.463,0.071c0.103,0.051,0.485,0.585,0.485,2.258c0,1.561-0.92,13.008-1.34,14.51	c-1.259,4.498-5.323,5.442-8.511,5.442c-0.9,0-1.83-0.08-2.761-0.238l-1.971-0.335l-0.344,1.969l-0.695,4.083l2.077,0.208	c5.045,0.888,7.295,2.656,7.742,4.028c0.53,1.628-1.059,3.583-2.054,4.604C45.1,50.825,43.157,52,41.649,52z"/></svg>